<!--?xml version="1.0" standalone="no"?-->
              <svg id="sw-js-blob-svg" viewBox="0 0 100 100" xmlns="http://www.w3.org/2000/svg" version="1.1">
                    <defs> 
                        <linearGradient id="sw-gradient" x1="0" x2="1" y1="1" y2="0">
                            <stop id="stop1" stop-color="rgba(73, 34, 1, 1)" offset="0%"></stop>
                            <stop id="stop2" stop-color="rgba(73, 34, 1, 1)" offset="100%"></stop>
                        </linearGradient>
                    </defs>
                <path fill="url(#sw-gradient)" d="M20.8,-23.7C27.7,-19,34.6,-13.2,36.1,-6.2C37.6,0.8,33.6,9,28.9,16.1C24.1,23.2,18.5,29.3,11.4,32.4C4.2,35.5,-4.4,35.7,-12,32.9C-19.6,30.2,-26.1,24.5,-30.6,17.3C-35.2,10.1,-37.8,1.5,-35.8,-5.6C-33.7,-12.8,-26.9,-18.4,-20.2,-23C-13.4,-27.7,-6.7,-31.5,0.1,-31.6C7,-31.8,13.9,-28.3,20.8,-23.7Z" width="100%" height="100%" transform="translate(50 50)" stroke-width="0" style="transition: 0.3s;" stroke="url(#sw-gradient)"></path>
              </svg>