<!--?xml version="1.0" standalone="no"?-->
              <svg id="sw-js-blob-svg" viewBox="0 0 100 100" xmlns="http://www.w3.org/2000/svg" version="1.1">
                    <defs> 
                        <linearGradient id="sw-gradient" x1="0" x2="1" y1="1" y2="0">
                            <stop id="stop1" stop-color="rgba(242, 231, 223, 1)" offset="0%"></stop>
                            <stop id="stop2" stop-color="rgba(242, 231, 223, 1)" offset="100%"></stop>
                        </linearGradient>
                    </defs>
                <path fill="url(#sw-gradient)" d="M19.3,-34.1C25.2,-30,30.3,-25.2,32.7,-19.4C35.1,-13.7,34.7,-6.8,34.1,-0.3C33.6,6.2,32.9,12.4,30.3,17.8C27.7,23.2,23.2,27.8,17.8,31.6C12.5,35.4,6.2,38.3,0.2,37.9C-5.8,37.6,-11.6,33.8,-18.4,30.9C-25.3,28,-33.2,25.9,-38.5,20.9C-43.7,15.9,-46.1,7.9,-45.7,0.2C-45.3,-7.4,-42,-14.9,-36.1,-18.6C-30.1,-22.4,-21.5,-22.4,-15.1,-26.2C-8.6,-30,-4.3,-37.6,1.2,-39.7C6.7,-41.7,13.4,-38.2,19.3,-34.1Z" width="100%" height="100%" transform="translate(50 50)" stroke-width="0" style="transition: 0.3s;"></path>
              </svg>